<?xml version="1.0" encoding="UTF-8" standalone="no"?> <!-- Created with Inkscape (http://www.inkscape.org/) --> <svg xmlns="http://www.w3.org/2000/svg" xmlns:svg="http://www.w3.org/2000/svg" width="63.214317mm" height="21.135695mm" viewBox="0 0 63.214317 21.135695" id="svg1" xml:space="preserve"> <defs id="defs1"> <linearGradient id="swatch25"> <stop style="stop-color:#000000;stop-opacity:1;" offset="0" id="stop25"></stop> </linearGradient> <style id="style1">.cls-1{fill:none;stroke:#333333;stroke-linecap:round;stroke-linejoin:round;stroke-width:2px;}</style> </defs> <g id="layer2" transform="translate(197.97245,324.13735)"> <path d="m -139.63316,-311.49971 c 1.61256,0 2.92423,1.3808 2.92423,3.07808 0,0.88779 -0.35167,2.95221 -3.60716,2.95221 h -0.0418 c -0.29376,0 -0.53158,-0.23831 -0.53158,-0.53158 0,-0.29336 0.23804,-0.53164 0.53158,-0.53164 h 0.0418 c 1.68807,0 2.54396,-0.63546 2.54396,-1.88899 0,-1.11108 -0.83465,-2.01482 -1.86103,-2.01482 -0.4423,0 -0.87751,0.19706 -1.22554,0.55426 -0.43309,0.44481 -0.67194,1.07317 -0.6546,1.72456 0.008,0.29333 -0.22429,0.53766 -0.51744,0.5451 -0.29459,0.0162 -0.53765,-0.22376 -0.54544,-0.51744 -0.0243,-0.93636 0.32377,-1.84539 0.95588,-2.49433 0.55,-0.56423 1.25566,-0.87541 1.98714,-0.87541 z" id="path1-1-3-4" style="display:inline;fill:#009ee0;fill-opacity:1;stroke-width:0.354411"></path> <path d="m -169.8523,-314.15813 c 0.0747,-0.21324 0.27583,-0.35628 0.50185,-0.35628 h 14.42449 c -0.31169,-0.77119 -0.43801,-1.68413 -0.43801,-2.38162 0,-2.83847 1.98325,-4.89829 4.71542,-4.89829 1.03204,0 2.04669,0.35083 2.87285,0.9902 0.0334,0.0162 0.0655,0.0334 0.096,0.0563 l 10.85523,8.00719 c 0.048,0.0375 0.0857,0.0784 0.11781,0.12454 1.183,0.9757 1.94853,2.49363 1.94853,4.20046 0,2.8718 -2.16013,5.21977 -4.85152,5.32256 -0.0566,0.0216 -0.11781,0.0334 -0.1817,0.0334 l -16.4503,0.058 c -3.7e-4,0 -0.001,0 -0.002,0 -0.12051,0 -0.23723,-0.0418 -0.33126,-0.11592 l -13.10676,-10.44801 c -0.17657,-0.14126 -0.24505,-0.37835 -0.17037,-0.59151 z m 21.6513,-5.65283 c -0.0491,-0.0216 -0.096,-0.0474 -0.13748,-0.0822 -0.6656,-0.54828 -1.46442,-0.83816 -2.31005,-0.83816 -2.11621,0 -3.65221,1.61288 -3.65221,3.83504 0,0.83751 0.21243,1.97126 0.6716,2.54857 l 8.85353,6.70616 c -0.0334,-0.25448 -0.0528,-0.5132 -0.0528,-0.77475 0,-2.87711 2.16759,-5.22292 4.86497,-5.31897 z m -7.85731,15.74393 16.0892,-0.0563 c 0.055,-0.0216 0.11403,-0.0291 0.17577,-0.0291 2.19024,0 3.97222,-1.91239 3.97222,-4.26249 0,-2.35186 -1.78198,-4.26497 -3.97222,-4.26497 -2.19025,0 -3.97188,1.91311 -3.97188,4.26497 0,0.63581 0.12886,1.25037 0.38251,1.82663 0.0243,0.0582 0.0418,0.11862 0.0437,0.17873 0.0418,0.15259 0.0135,0.32043 -0.0903,0.45543 -0.17712,0.23427 -0.5107,0.28002 -0.74496,0.10298 l -10.0323,-7.59923 h -13.62424 z" id="path2-4-3-6" style="display:inline;fill:#333333;fill-opacity:1;stroke-width:0.354411"></path> <g style="display:inline;fill:#333333;fill-opacity:1" id="g6-3-7" transform="matrix(0.73590291,0,0,0.73590291,-198.55477,-315.38459)"> <path d="M 1.14,9 C 1.052,9 0.98,8.972 0.924,8.916 0.868,8.86 0.84,8.788 0.84,8.7 V 0.9 C 0.84,0.812 0.868,0.74 0.924,0.684 0.98,0.628 1.052,0.599999 1.14,0.599999 H 7.8 C 7.888,0.599999 7.96,0.628 8.016,0.684 8.072,0.74 8.1,0.812 8.1,0.9 V 8.7 C 8.1,8.788 8.072,8.86 8.016,8.916 7.96,8.972 7.888,9 7.8,9 H 6.252 C 6.164,9 6.092,8.972 6.036,8.916 5.98,8.86 5.952,8.788 5.952,8.7 V 2.52 H 2.988 V 8.7 C 2.988,8.788 2.96,8.86 2.904,8.916 2.848,8.972 2.776,9 2.688,9 Z m 8.40141,0 c -0.064,0 -0.124,-0.024 -0.18,-0.072 -0.048,-0.056 -0.072,-0.116 -0.072,-0.18 0,-0.04 0.004,-0.076 0.012,-0.108 L 12.1214,0.935999 c 0.024,-0.087999 0.072,-0.163999 0.144,-0.228 0.08,-0.072 0.188,-0.108 0.324,-0.108 h 1.776 c 0.136,0 0.24,0.036 0.312,0.108 0.08,0.064001 0.132,0.140001 0.156,0.228 L 17.6414,8.64 c 0.016,0.032 0.024,0.068 0.024,0.108 0,0.064 -0.028,0.124 -0.084,0.18 C 17.5334,8.976 17.4734,9 17.4014,9 h -1.476 c -0.12,0 -0.212,-0.028 -0.276,-0.084 -0.056,-0.064 -0.092,-0.12 -0.108,-0.168 l -0.468,-1.224 h -3.204 l -0.456,1.224 c -0.016,0.048 -0.052,0.104 -0.108,0.168 C 11.2494,8.972 11.1534,9 11.0174,9 Z M 12.3614,5.796 h 2.232 L 13.4654,2.628 Z M 19.1512,9 C 19.0632,9 18.9912,8.972 18.9352,8.916 18.8792,8.86 18.8512,8.788 18.8512,8.7 V 0.9 c 0,-0.088 0.028,-0.16 0.084,-0.216 0.056,-0.056 0.128,-0.084001 0.216,-0.084001 h 1.548 c 0.088,0 0.16,0.028001 0.216,0.084001 0.056,0.056 0.084,0.128 0.084,0.216 v 2.892 h 0.732 l 1.776,-2.964001 C 23.5472,0.764 23.6032,0.712 23.6752,0.672 c 0.072,-0.048 0.164,-0.072001 0.276,-0.072001 h 1.7281 c 0.08,0 0.144,0.028001 0.1919,0.084001 0.048,0.048 0.072,0.104 0.072,0.168 0,0.048 -0.016,0.095999 -0.048,0.143999 l -2.232,3.648001 2.448,3.948 c 0.024,0.032 0.036,0.076 0.036,0.132 0,0.08 -0.028,0.148 -0.084,0.204 C 26.0152,8.976 25.9512,9 25.8712,9 h -1.776 c -0.128,0 -0.224,-0.028 -0.288,-0.084 -0.056,-0.056 -0.1,-0.104 -0.132,-0.144 l -1.86,-3.06 h -0.816 V 8.7 c 0,0.088 -0.028,0.16 -0.084,0.216 C 20.8592,8.972 20.7872,9 20.6992,9 Z" fill="#333333" id="path1-44-3-0" style="fill:#333333;fill-opacity:1"></path> </g> <g style="display:inline;fill:#333333;fill-opacity:1" id="g7-7-8" transform="matrix(0.73590291,0,0,0.73590291,-198.3875,-324.49059)"> <path d="M 4.284,9.12 C 3.524,9.12 2.872,8.996 2.328,8.748 1.792,8.5 1.372,8.136 1.068,7.656 0.772,7.176 0.608,6.58 0.576,5.868 0.568,5.54 0.564,5.188 0.564,4.812 0.564,4.436 0.568,4.076 0.576,3.732 0.608,3.036 0.776,2.448 1.08,1.968 1.384,1.48 1.808,1.112 2.352,0.864 2.896,0.608 3.54,0.48 4.284,0.48 c 0.528,0 1.016,0.068 1.464,0.204 0.448,0.128 0.84,0.32 1.176,0.576 0.336,0.248 0.596,0.552 0.78,0.912 0.192,0.352 0.292,0.752 0.3,1.2 C 8.012,3.444 7.988,3.504 7.932,3.552 7.884,3.6 7.824,3.624 7.752,3.624 H 6.132 C 6.028,3.624 5.948,3.604 5.892,3.564 5.836,3.516 5.788,3.432 5.748,3.312 5.636,2.888 5.452,2.6 5.196,2.448 4.948,2.288 4.64,2.208 4.272,2.208 3.832,2.208 3.484,2.332 3.228,2.58 2.972,2.82 2.832,3.224 2.808,3.792 c -0.024,0.656 -0.024,1.328 0,2.016 0.024,0.568 0.164,0.976 0.42,1.224 0.256,0.24 0.604,0.36 1.044,0.36 0.368,0 0.68,-0.08 0.936,-0.24 C 5.464,6.992 5.644,6.704 5.748,6.288 5.78,6.168 5.824,6.088 5.88,6.048 5.944,6 6.028,5.976 6.132,5.976 h 1.62 c 0.072,0 0.132,0.024 0.18,0.072 0.056,0.048 0.08,0.108 0.072,0.18 C 7.996,6.676 7.896,7.08 7.704,7.44 7.52,7.792 7.26,8.096 6.924,8.352 6.588,8.6 6.196,8.792 5.748,8.928 5.3,9.056 4.812,9.12 4.284,9.12 Z M 10.5258,9 C 10.4378,9 10.3658,8.972 10.3098,8.916 10.2538,8.86 10.2258,8.788 10.2258,8.7 V 0.9 c 0,-0.088 0.028,-0.16 0.084,-0.216 0.056,-0.056 0.128,-0.084001 0.216,-0.084001 h 5.604 c 0.088,0 0.16,0.028001 0.216,0.084001 0.056,0.056 0.084,0.128 0.084,0.216 v 1.128 c 0,0.088 -0.028,0.16 -0.084,0.216 -0.056,0.056 -0.128,0.084 -0.216,0.084 h -3.828 v 1.62 h 3.564 c 0.088,0 0.16,0.032 0.216,0.096 0.056,0.056 0.084,0.128 0.084,0.216 v 1.044 c 0,0.08 -0.028,0.152 -0.084,0.216 -0.056,0.056 -0.128,0.084 -0.216,0.084 h -3.564 v 1.668 h 3.924 c 0.088,0 0.16,0.028 0.216,0.084 0.056,0.056 0.084,0.128 0.084,0.216 V 8.7 c 0,0.088 -0.028,0.16 -0.084,0.216 C 16.3858,8.972 16.3138,9 16.2258,9 Z m 8.624,0 C 19.0618,9 18.9898,8.972 18.9338,8.916 18.8778,8.86 18.8498,8.788 18.8498,8.7 V 0.9 c 0,-0.088 0.028,-0.16 0.084,-0.216 0.056,-0.056 0.128,-0.084001 0.216,-0.084001 h 3.36 c 0.664,0 1.24,0.104001 1.728,0.312001 0.496,0.2 0.88,0.504 1.152,0.912 0.28,0.408 0.42,0.924 0.42,1.548 0,0.616 -0.14,1.124 -0.42,1.524 -0.272,0.4 -0.656,0.696 -1.152,0.888 -0.488,0.192 -1.064,0.288 -1.728,0.288 h -1.428 V 8.7 c 0,0.088 -0.032,0.16 -0.096,0.216 C 20.9298,8.972 20.8578,9 20.7698,9 Z m 1.896,-4.584 h 1.404 c 0.344,0 0.616,-0.088 0.816,-0.264 0.208,-0.176 0.312,-0.444 0.312,-0.804 0,-0.304 -0.088,-0.56 -0.264,-0.768 -0.176,-0.208 -0.464,-0.312 -0.864,-0.312 h -1.404 z M 28.2192,9 C 28.1312,9 28.0592,8.972 28.0032,8.916 27.9472,8.86 27.9192,8.788 27.9192,8.7 V 0.9 c 0,-0.088 0.028,-0.16 0.084,-0.216 0.056,-0.056 0.128,-0.084001 0.216,-0.084001 h 3.66 c 0.688,0 1.252,0.096 1.692,0.288 0.44,0.192001 0.764,0.468001 0.972,0.828001 0.216,0.352 0.324,0.772 0.324,1.26 0,0.288 -0.056,0.544 -0.168,0.768 -0.104,0.216 -0.236,0.396 -0.396,0.54 -0.152,0.144 -0.296,0.248 -0.432,0.312 0.304,0.144 0.572,0.38 0.804,0.708 0.24,0.328 0.36,0.712 0.36,1.152 0,0.528 -0.12,0.984 -0.36,1.368 -0.232,0.376 -0.576,0.668 -1.032,0.876 -0.448,0.2 -1,0.3 -1.656,0.3 z m 1.848,-1.56 h 1.68 c 0.344,0 0.604,-0.1 0.78,-0.3 0.176,-0.2 0.264,-0.428 0.264,-0.684 0,-0.28 -0.092,-0.516 -0.276,-0.708 -0.176,-0.192 -0.432,-0.288 -0.768,-0.288 h -1.68 z m 0,-3.504 h 1.572 c 0.328,0 0.572,-0.084 0.732,-0.252 0.168,-0.168 0.252,-0.384 0.252,-0.648 0,-0.256 -0.084,-0.464 -0.252,-0.624 -0.16,-0.168 -0.404,-0.252 -0.732,-0.252 h -1.572 z M 37.6284,9 C 37.5404,9 37.4684,8.972 37.4124,8.916 37.3564,8.852 37.3284,8.78 37.3284,8.7 V 0.9 c 0,-0.088 0.028,-0.16 0.084,-0.216 0.064,-0.056 0.136,-0.084001 0.216,-0.084001 h 1.548 c 0.088,0 0.16,0.028001 0.216,0.084001 0.056,0.056 0.084,0.128 0.084,0.216 v 4.836 l 3.42,-4.908001 C 42.9364,0.764 42.9884,0.712 43.0524,0.672 c 0.064,-0.048 0.148,-0.072001 0.252,-0.072001 h 1.392 c 0.08,0 0.148,0.028001 0.204,0.084001 0.064,0.056 0.096,0.128 0.096,0.216 v 7.8 c 0,0.088 -0.032,0.16 -0.096,0.216 C 44.8444,8.972 44.7764,9 44.6964,9 h -1.548 C 43.0604,9 42.9844,8.972 42.9204,8.916 42.8644,8.86 42.8364,8.788 42.8364,8.7 V 4.044 l -3.408,4.728 c -0.04,0.056 -0.092,0.108 -0.156,0.156 C 39.2164,8.976 39.1324,9 39.0204,9 Z m 13.4439,0.12 c -0.76,0 -1.412,-0.124 -1.956,-0.372 -0.536,-0.248 -0.956,-0.612 -1.26,-1.092 -0.296,-0.48 -0.46,-1.076 -0.492,-1.788 -0.008,-0.328 -0.012,-0.68 -0.012,-1.056 0,-0.376 0.004,-0.736 0.012,-1.08 0.032,-0.696 0.2,-1.284 0.504,-1.764 0.304,-0.488 0.728,-0.856 1.272,-1.104 0.544,-0.256 1.188,-0.384 1.932,-0.384 0.528,0 1.016,0.068 1.464,0.204 0.448,0.128 0.84,0.32 1.176,0.576 0.336,0.248 0.596,0.552 0.78,0.912 0.192,0.352 0.292,0.752 0.3,1.2 0.008,0.072 -0.016,0.132 -0.072,0.18 -0.048,0.048 -0.108,0.072 -0.18,0.072 h -1.62 c -0.104,0 -0.184,-0.02 -0.24,-0.06 -0.056,-0.048 -0.104,-0.132 -0.144,-0.252 -0.112,-0.424 -0.296,-0.712 -0.552,-0.864 -0.248,-0.16 -0.556,-0.24 -0.924,-0.24 -0.44,0 -0.788,0.124 -1.044,0.372 -0.256,0.24 -0.396,0.644 -0.42,1.212 -0.024,0.656 -0.024,1.328 0,2.016 0.024,0.568 0.164,0.976 0.42,1.224 0.256,0.24 0.604,0.36 1.044,0.36 0.368,0 0.68,-0.08 0.936,-0.24 0.256,-0.16 0.436,-0.448 0.54,-0.864 0.032,-0.12 0.076,-0.2 0.132,-0.24 0.064,-0.048 0.148,-0.072 0.252,-0.072 h 1.62 c 0.072,0 0.132,0.024 0.18,0.072 0.056,0.048 0.08,0.108 0.072,0.18 -0.008,0.448 -0.108,0.852 -0.3,1.212 -0.184,0.352 -0.444,0.656 -0.78,0.912 -0.336,0.248 -0.728,0.44 -1.176,0.576 -0.448,0.128 -0.936,0.192 -1.464,0.192 z" fill="#333333" id="path1-17-5-3" style="fill:#333333;fill-opacity:1"></path> </g> </g> </svg> 