<?xml version="1.0" encoding="UTF-8" standalone="no"?>
<!-- Created with Inkscape (http://www.inkscape.org/) -->

<svg
   width="25.520979mm"
   height="13.993881mm"
   viewBox="0 0 25.520979 13.993881"
   version="1.1"
   id="svg1"
   xml:space="preserve"
   inkscape:version="1.3 (0e150ed6c4, 2023-07-21)"
   sodipodi:docname="па222к.svg"
   inkscape:export-filename="щищик.svg"
   inkscape:export-xdpi="96"
   inkscape:export-ydpi="96"
   xmlns:inkscape="http://www.inkscape.org/namespaces/inkscape"
   xmlns:sodipodi="http://sodipodi.sourceforge.net/DTD/sodipodi-0.dtd"
   xmlns="http://www.w3.org/2000/svg"
   xmlns:svg="http://www.w3.org/2000/svg"><sodipodi:namedview
     id="namedview1"
     pagecolor="#ffffff"
     bordercolor="#000000"
     borderopacity="0.25"
     inkscape:showpageshadow="2"
     inkscape:pageopacity="0.0"
     inkscape:pagecheckerboard="0"
     inkscape:deskcolor="#d1d1d1"
     inkscape:document-units="mm"
     showguides="true"
     showgrid="false"
     inkscape:zoom="1"
     inkscape:cx="-563.99998"
     inkscape:cy="-1154"
     inkscape:window-width="1264"
     inkscape:window-height="474"
     inkscape:window-x="0"
     inkscape:window-y="208"
     inkscape:window-maximized="0"
     inkscape:current-layer="layer2"><sodipodi:guide
       position="266.34981,-174.80978"
       orientation="0,-1"
       id="guide6"
       inkscape:locked="false" /><inkscape:grid
       id="grid6"
       units="mm"
       originx="555.93319"
       originy="1097.7634"
       spacingx="0.99999998"
       spacingy="1"
       empcolor="#0099e5"
       empopacity="0.30196078"
       color="#0099e5"
       opacity="0.14902"
       empspacing="5"
       dotted="false"
       gridanglex="30"
       gridanglez="30"
       visible="false" /><sodipodi:guide
       position="229.76089,-156.96705"
       orientation="0,-1"
       id="guide7"
       inkscape:locked="false" /><sodipodi:guide
       position="288.70999,-165.6377"
       orientation="1,0"
       id="guide8"
       inkscape:locked="false" /><sodipodi:guide
       position="290.63144,-167.86484"
       orientation="0,-1"
       id="guide9"
       inkscape:locked="false" /><sodipodi:guide
       position="211.38441,-178.65824"
       orientation="1,0"
       id="guide10"
       inkscape:locked="false" /><sodipodi:guide
       position="277.57433,-136.85968"
       orientation="1,0"
       id="guide11"
       inkscape:locked="false" /><sodipodi:guide
       position="414.99782,-140.30193"
       orientation="1,0"
       id="guide32"
       inkscape:locked="false" /><sodipodi:guide
       position="396.72503,-142.21188"
       orientation="1,0"
       id="guide33"
       inkscape:locked="false" /><sodipodi:guide
       position="397.23697,-140.40221"
       orientation="0,-1"
       id="guide34"
       inkscape:locked="false" /><sodipodi:guide
       position="397.28083,-156.86309"
       orientation="0,-1"
       id="guide35"
       inkscape:locked="false" /><sodipodi:guide
       position="437.80573,-190.34332"
       orientation="0,-1"
       id="guide40"
       inkscape:locked="false" /><sodipodi:guide
       position="477.20277,-190.39435"
       orientation="1,0"
       id="guide41"
       inkscape:locked="false" /><sodipodi:guide
       position="469.61774,-200.22179"
       orientation="1,0"
       id="guide42"
       inkscape:locked="false" /><sodipodi:guide
       position="453.47816,-199.09731"
       orientation="1,0"
       id="guide45"
       inkscape:locked="false" /><sodipodi:guide
       position="455.19794,-231.37647"
       orientation="1,0"
       id="guide48"
       inkscape:locked="false" /><sodipodi:guide
       position="467.76565,-229.52439"
       orientation="1,0"
       id="guide49"
       inkscape:locked="false" /><sodipodi:guide
       position="205.41555,-108.32235"
       orientation="1,0"
       id="guide12"
       inkscape:locked="false" /><sodipodi:guide
       position="208.61248,-112.33257"
       orientation="1,0"
       id="guide15"
       inkscape:locked="false" /><sodipodi:guide
       position="163.75941,-1.5196932"
       orientation="1,0"
       id="guide36"
       inkscape:locked="false" /><sodipodi:guide
       position="206.25745,-83.533103"
       orientation="0,-1"
       id="guide37"
       inkscape:locked="false" /><sodipodi:guide
       position="217.99726,50.890107"
       orientation="0,-1"
       id="guide63"
       inkscape:locked="false" /><sodipodi:guide
       position="200.38766,21.846307"
       orientation="0,-1"
       id="guide64"
       inkscape:locked="false" /><sodipodi:guide
       position="50.914619,85.991237"
       orientation="1,0"
       id="guide3"
       inkscape:locked="false" /><sodipodi:guide
       position="110.67738,216.06702"
       orientation="1,0"
       id="guide13"
       inkscape:locked="false" /><sodipodi:guide
       position="111.10732,216.00087"
       orientation="1,0"
       id="guide14"
       inkscape:locked="false" /><sodipodi:guide
       position="77.60446,224.88096"
       orientation="1,0"
       id="guide28"
       inkscape:locked="false" /><sodipodi:guide
       position="81.650549,223.64312"
       orientation="1,0"
       id="guide29"
       inkscape:locked="false" /><sodipodi:guide
       position="136.14597,215.20073"
       orientation="0,-1"
       id="guide30"
       inkscape:locked="false" /><sodipodi:guide
       position="152.34925,218.97743"
       orientation="1,0"
       id="guide31"
       inkscape:locked="false" /><sodipodi:guide
       position="145.41634,225.22822"
       orientation="0,-1"
       id="guide1"
       inkscape:locked="false" /><sodipodi:guide
       position="187.89937,191.66265"
       orientation="1,0"
       id="guide23"
       inkscape:locked="false" /></sodipodi:namedview><defs
     id="defs1"><linearGradient
       id="swatch25"
       inkscape:swatch="solid"><stop
         style="stop-color:#000000;stop-opacity:1;"
         offset="0"
         id="stop25" /></linearGradient><style
       id="style1">.cls-1{fill:none;stroke:#333333;stroke-linecap:round;stroke-linejoin:round;stroke-width:2px;}</style></defs><g
     inkscape:groupmode="layer"
     id="layer2"
     inkscape:label="слова"
     transform="translate(147.09066,290.44991)"><path
       d="m -136.50993,-290.44974 c 4.92755,0.003 9.73611,1.85905 10.90983,4.56662 l -0.0558,0.0116 c -2.92328,-4.22944 -10.66293,-4.44473 -14.05726,-0.54734 l -7.37454,-0.005 c 1.72876,-2.36289 5.65027,-4.02941 10.57777,-4.02603 z"
       style="fill:#009ee0;fill-rule:evenodd;stroke-width:0.527915"
       id="path1-5" /><path
       d="m -135.54665,-277.13722 c -5.58929,-0.004 -10.29523,-1.94272 -11.54401,-4.53541 1.29862,2.00707 4.3044,3.41956 7.79244,3.42183 2.18008,0.001 4.17243,-0.54882 5.67778,-1.45124 l -2.62627,-1.09943 5.99193,0.0275 4.39072,0.003 -0.003,4.31496 -3.60808,-1.51031 c -1.77855,0.52797 -3.85568,0.83099 -6.0715,0.82951 z"
       style="fill:#e30079;fill-rule:evenodd;stroke-width:0.527915"
       id="path2-5" /><path
       d="m -122.83668,-287.7143 c 0.69817,3.7e-4 1.26736,0.53319 1.26699,1.18612 -3.7e-4,0.6525 -0.5703,1.18459 -1.26847,1.18422 -0.69822,-3.7e-4 -1.26742,-0.5332 -1.26705,-1.18612 3.7e-4,-0.6525 0.57031,-1.18459 1.26853,-1.18422 z m 0,0.15019 c 0.60969,3.7e-4 1.10714,0.46552 1.10677,1.03593 -3.7e-4,0.56999 -0.49819,1.03476 -1.10825,1.03439 -0.60974,-3.7e-4 -1.10683,-0.46588 -1.1064,-1.03592 3.7e-4,-0.57036 0.49777,-1.03477 1.10788,-1.0344 z"
       style="fill:#e30079;fill-rule:evenodd;stroke-width:0.527915"
       id="path3-1" /><path
       d="m -122.96312,-286.6126 h 0.0595 c 0.10859,3.7e-4 0.1911,-0.0208 0.24759,-0.0628 0.0565,-0.042 0.0844,-0.10299 0.0844,-0.18408 0,-0.0781 -0.0234,-0.13536 -0.0706,-0.17252 -0.0468,-0.0372 -0.12084,-0.0558 -0.22083,-0.0558 h -0.0997 z m -3.7e-4,0.75513 -0.26913,-3.7e-4 10e-4,-1.46902 h 0.32641 c 0.10374,0 0.18108,0.004 0.2316,0.0119 0.0506,0.008 0.0933,0.0205 0.12976,0.038 0.0777,0.039 0.1372,0.0937 0.17806,0.1636 0.0409,0.0699 0.061,0.15167 0.061,0.24612 0,0.11376 -0.0293,0.21011 -0.0881,0.28892 -0.0583,0.0792 -0.13789,0.1294 -0.23867,0.15056 l 0.34314,0.57073 -0.32081,-3.7e-4 -0.35397,-0.68227 z"
       style="fill:#e30079;fill-rule:evenodd;stroke-width:0.527915"
       id="path4-1" /><path
       d="m -144.76636,-282.00654 c -0.0264,-0.009 -0.0703,-0.0134 -0.13118,-0.0134 l -0.47888,0.0261 c -0.48367,-4.2e-4 -0.86884,-0.13536 -1.15586,-0.40607 -0.11266,-0.10632 -0.20668,-0.2279 -0.28365,-0.36511 -0.0762,-0.13609 -0.13272,-0.28185 -0.17031,-0.43653 -0.0375,-0.15505 -0.0568,-0.31675 -0.0565,-0.4841 0,-0.20372 0.0335,-0.3982 0.0992,-0.58334 0.0662,-0.18483 0.16471,-0.34025 0.2941,-0.4633 0.13568,-0.12607 0.2855,-0.21455 0.44873,-0.26734 0.16323,-0.0524 0.34204,-0.0784 0.53684,-0.0784 l 0.43574,0.0394 0.12675,0.0145 c 0.0766,0 0.12791,-0.0316 0.15431,-0.0941 l 0.18218,0.85184 -0.0316,0.0138 c -0.0472,-0.12643 -0.11524,-0.23392 -0.20557,-0.32277 -0.0896,-0.0888 -0.19184,-0.15578 -0.30746,-0.20113 -0.1145,-0.0442 -0.23275,-0.0669 -0.35433,-0.0669 -0.13979,0 -0.26174,0.0223 -0.36696,0.0666 -0.1041,0.045 -0.19849,0.12306 -0.28217,0.2346 -0.0821,0.10897 -0.14496,0.23572 -0.18846,0.38074 -0.0435,0.14501 -0.0655,0.29336 -0.0655,0.44545 -3.7e-4,0.19517 0.0275,0.38258 0.0833,0.56218 0.0554,0.17885 0.13605,0.33908 0.24237,0.47892 0.10632,0.1409 0.23349,0.24981 0.38073,0.32905 0.14681,0.0788 0.30857,0.11894 0.48404,0.11894 0.39335,4.2e-4 0.68518,-0.23424 0.87518,-0.70308 l 0.0397,0.0186 z m 0.91087,-1.05931 c 0.0208,0.15394 0.0703,0.29558 0.14834,0.4246 0.0781,0.12902 0.17659,0.23091 0.29521,0.3064 0.11857,0.0755 0.24537,0.11266 0.37883,0.11303 0.0747,0 0.15801,-0.0215 0.24981,-0.0643 0.0915,-0.0428 0.16846,-0.0948 0.2298,-0.15579 0.0706,-0.0714 0.14053,-0.18556 0.21006,-0.3432 l 0.0357,0.0186 -0.20637,0.74436 c -0.0279,-0.0219 -0.058,-0.0327 -0.0911,-0.0327 -0.0193,0 -0.0442,0.003 -0.0755,0.009 l -0.41563,0.0401 c -0.13235,0 -0.26844,-0.0226 -0.40787,-0.0673 -0.13942,-0.045 -0.27103,-0.11488 -0.39408,-0.2108 -0.12343,-0.0952 -0.22231,-0.21713 -0.29664,-0.36436 -0.0748,-0.14761 -0.11192,-0.31902 -0.11192,-0.51351 3.7e-4,-0.22045 0.0465,-0.41906 0.13832,-0.59564 0.0922,-0.17659 0.21861,-0.31416 0.37809,-0.4131 0.15985,-0.10004 0.33533,-0.14945 0.52607,-0.14945 0.21934,3.7e-4 0.41377,0.0703 0.5844,0.21006 0.1703,0.14016 0.28254,0.32905 0.33686,0.56666 z m 1.04917,-0.53542 c -0.0413,-0.142 -0.10484,-0.261 -0.18888,-0.35729 -0.0847,-0.0963 -0.18588,-0.14428 -0.30482,-0.14428 -0.1257,0 -0.23165,0.0386 -0.31865,0.11673 -0.0874,0.0781 -0.15241,0.18186 -0.19554,0.31125 -0.0431,0.1294 -0.0639,0.26919 -0.0643,0.41938 z m 1.74138,-0.67187 c 0.23165,3.7e-4 0.4339,0.0431 0.60563,0.12828 0.17215,0.0851 0.30561,0.21381 0.39894,0.38522 0.0929,0.17141 0.13979,0.38147 0.13979,0.62838 -3.7e-4,0.23682 -0.0472,0.43722 -0.14164,0.59934 -0.0937,0.16249 -0.22531,0.28333 -0.39372,0.36289 -0.16803,0.0804 -0.36214,0.1201 -0.58186,0.11973 l -0.43089,-0.0175 -3.7e-4,0.40977 c 0,0.16096 0.0134,0.28592 0.0402,0.37366 0.0264,0.0888 0.0911,0.1372 0.19258,0.14539 v 0.0405 l -0.87887,-3.7e-4 v -0.0409 c 0.10405,-0.008 0.16951,-0.0554 0.19665,-0.1428 0.0275,-0.087 0.0413,-0.2108 0.0413,-0.37144 l 10e-4,-2.06658 c 3.7e-4,-0.16133 -0.0134,-0.28555 -0.0405,-0.37218 -0.0271,-0.0859 -0.0922,-0.13308 -0.19665,-0.14127 v -0.0409 z m -0.4067,0.18926 -0.001,1.39839 c 0,0.11044 0.009,0.19781 0.026,0.26026 0.0179,0.0621 0.0546,0.10896 0.11155,0.14058 0.0565,0.0308 0.14386,0.0468 0.26206,0.0468 0.14834,0 0.27774,-0.0413 0.38781,-0.12306 0.10964,-0.0826 0.19332,-0.19374 0.25091,-0.33427 0.0576,-0.1409 0.0859,-0.29558 0.0863,-0.4633 0,-0.18884 -0.0361,-0.35323 -0.10854,-0.49376 -0.0725,-0.1409 -0.1729,-0.24764 -0.30155,-0.32087 -0.12897,-0.0733 -0.27546,-0.11044 -0.44054,-0.11044 z m 3.04781,0.77709 -0.59444,0.16734 -3.6e-4,0.52797 c 0,0.13383 0.007,0.2231 0.0197,0.26808 0.0133,0.0461 0.0476,0.0759 0.1022,0.0896 0.0554,0.0145 0.16101,0.0212 0.31754,0.0212 0.16281,-0.002 0.2959,-0.0465 0.39926,-0.13351 0.10337,-0.087 0.15468,-0.20747 0.15505,-0.36141 0,-0.13013 -0.0353,-0.24501 -0.10669,-0.34505 -0.071,-0.1 -0.16883,-0.17769 -0.29225,-0.23423 z m -0.14645,-0.9645 c 0.1446,0 0.26729,0.008 0.36917,0.0227 0.10147,0.0153 0.18921,0.0535 0.26211,0.1145 0.0736,0.061 0.10928,0.15357 0.10928,0.27816 0,0.10595 -0.0361,0.19776 -0.10965,0.27589 -0.0733,0.0773 -0.16771,0.13715 -0.28259,0.1788 0.17622,0.0413 0.32794,0.11752 0.45691,0.22796 0.12755,0.11043 0.19148,0.24537 0.19148,0.40491 0,0.15985 -0.0424,0.29447 -0.12639,0.40264 -0.0844,0.10822 -0.1967,0.18851 -0.33686,0.24057 -0.1409,0.0517 -0.29663,0.0777 -0.46731,0.0777 l -1.15661,-7.4e-4 v -0.0409 c 0.10337,-0.009 0.1692,-0.0583 0.1967,-0.14686 0.0271,-0.0881 0.0409,-0.2108 0.0412,-0.36696 l 8e-4,-1.11469 c 0,-0.15658 -0.0138,-0.27889 -0.0409,-0.36737 -0.0268,-0.0877 -0.0922,-0.13647 -0.1967,-0.1465 v -0.0405 z m -0.0591,0.8247 c 0.24796,-0.0699 0.37212,-0.19406 0.37249,-0.36996 0,-0.17923 -0.12004,-0.26992 -0.36025,-0.26992 -0.13979,0 -0.23534,0.007 -0.28776,0.0215 -0.0513,0.0142 -0.0829,0.0435 -0.0951,0.0877 -0.0116,0.0443 -0.0175,0.13092 -0.0178,0.25957 v 0.37963 z m 2.84261,-0.28259 -0.93542,0.92955 v 0.19855 c -3.7e-4,0.16434 0.0134,0.29078 0.0413,0.38036 0.0275,0.0896 0.0926,0.13388 0.19554,0.13388 v 0.0405 l -0.87925,-3.7e-4 v -0.0409 c 0.10337,-0.009 0.16878,-0.0584 0.19665,-0.14686 0.0272,-0.0882 0.0409,-0.21085 0.0413,-0.36701 l 7.3e-4,-1.11469 c 0,-0.15653 -0.0137,-0.2789 -0.0409,-0.36738 -0.0272,-0.0877 -0.0922,-0.13646 -0.1967,-0.14649 v -0.0405 l 0.87961,3.7e-4 v 0.0409 c -0.10368,-3.7e-4 -0.16914,0.0439 -0.19664,0.13277 -0.0271,0.0892 -0.0409,0.21565 -0.0409,0.38036 l -7.4e-4,0.66369 0.93542,-0.92844 c -3.7e-4,-0.0379 -0.0156,-0.0859 -0.0461,-0.14502 -0.0294,-0.0599 -0.0933,-0.0933 -0.19074,-0.10336 v -0.0405 l 0.87924,3.7e-4 v 0.0409 c -0.10299,0 -0.1684,0.0442 -0.19627,0.13277 -0.0275,0.0896 -0.0417,0.21602 -0.0417,0.38073 l -7.4e-4,1.11469 c 0,0.16434 0.0137,0.29115 0.0413,0.38036 0.0279,0.0896 0.0929,0.13388 0.19591,0.13388 v 0.0409 l -0.87925,-8e-4 v -0.0405 c 0.10332,-0.01 0.16878,-0.0584 0.19665,-0.14723 0.0268,-0.0877 0.0406,-0.21048 0.0409,-0.36664 z m 2.63999,1.71667 c -0.0298,-0.0148 -0.0576,-0.0226 -0.0826,-0.0226 l -0.0717,0.004 -0.11487,0.0142 -0.26063,0.0171 c -0.16023,0 -0.31264,-0.0279 -0.45839,-0.0844 -0.14534,-0.0565 -0.27473,-0.13757 -0.38665,-0.24464 -0.11192,-0.106 -0.20076,-0.23613 -0.2658,-0.38928 -0.0644,-0.15357 -0.0963,-0.32498 -0.0963,-0.5135 0,-0.20341 0.0409,-0.38818 0.12305,-0.55326 0.0818,-0.16545 0.19443,-0.29558 0.33866,-0.38854 0.14391,-0.0941 0.30561,-0.14059 0.48521,-0.14059 l 0.28069,0.0231 0.25282,0.0271 c 0.0665,0 0.12226,-0.0167 0.16613,-0.0494 l 0.1153,0.69452 -0.0238,0.0145 c -0.0673,-0.15431 -0.15653,-0.27552 -0.2666,-0.36178 -0.11002,-0.0877 -0.23719,-0.13124 -0.38252,-0.13124 -0.13235,0 -0.2495,0.0428 -0.35022,0.12823 -0.10115,0.0848 -0.17844,0.19744 -0.23123,0.33649 -0.0535,0.13948 -0.0799,0.2837 -0.0803,0.43247 0,0.18551 0.0391,0.3536 0.11678,0.50379 0.077,0.15061 0.17806,0.2677 0.30112,0.35286 0.12416,0.0848 0.24949,0.12717 0.37735,0.12717 0.13905,0 0.27251,-0.042 0.40116,-0.12606 0.12823,-0.0841 0.22379,-0.19671 0.28777,-0.33835 l 0.0271,0.019 z m 2.97158,-2.99792 v 0.0409 c -0.11224,0.0194 -0.18366,0.0748 -0.21338,0.16661 -0.0297,0.0922 -0.0442,0.21972 -0.0442,0.38258 l -0.001,1.81856 c 0,0.10669 0.004,0.19259 0.0137,0.25731 0.009,0.0636 0.0316,0.12121 0.0688,0.16914 0.0368,0.0491 0.0956,0.08 0.17474,0.0926 v 0.0405 l -0.95473,-7.4e-4 v -0.0357 c 0.0803,-0.01 0.13905,-0.0409 0.17701,-0.0919 0.0375,-0.0509 0.0613,-0.11192 0.0706,-0.18108 0.009,-0.0692 0.0137,-0.16175 0.0141,-0.27662 l 0.001,-1.77802 c 0,-0.11603 -0.007,-0.20003 -0.0204,-0.25213 -0.0138,-0.0517 -0.0468,-0.0885 -0.0978,-0.11192 -0.0513,-0.0226 -0.1342,-0.0338 -0.24987,-0.0342 h -0.44276 c -0.11561,0 -0.19855,0.0111 -0.24986,0.0334 -0.0509,0.0234 -0.084,0.0602 -0.0978,0.11192 -0.0141,0.0521 -0.0208,0.1361 -0.0208,0.25213 l -10e-4,1.77802 c 0,0.11487 0.004,0.2071 0.0137,0.27663 0.009,0.0692 0.0324,0.13013 0.0703,0.18107 0.0383,0.0513 0.0978,0.0821 0.17775,0.0919 v 0.036 l -0.95547,-3.7e-4 v -0.0409 c 0.0792,-0.0122 0.13789,-0.0431 0.17474,-0.0922 0.0375,-0.0479 0.0602,-0.10521 0.0692,-0.16914 0.009,-0.0643 0.0137,-0.15024 0.0141,-0.25694 l 0.001,-1.81856 c 0,-0.10896 -0.005,-0.19781 -0.0137,-0.26659 -0.009,-0.0673 -0.0316,-0.12829 -0.0688,-0.18108 -0.0368,-0.0532 -0.0956,-0.087 -0.17474,-0.10225 v -0.0405 z m 1.82247,2.96931 c -0.0859,-0.12607 -0.13087,-0.26174 -0.1342,-0.40602 -0.0484,0.10078 -0.11451,0.18514 -0.19818,0.25319 -0.0847,0.0684 -0.17733,0.11862 -0.27884,0.15024 -0.10147,0.0316 -0.20484,0.0472 -0.31079,0.0472 -0.18403,0 -0.33422,-0.0476 -0.45094,-0.14164 -0.11678,-0.0948 -0.17474,-0.22347 -0.17474,-0.38633 0,-0.16582 0.0468,-0.30603 0.14053,-0.42164 0.0929,-0.11599 0.20895,-0.20895 0.34911,-0.27959 0.13974,-0.0707 0.30149,-0.13166 0.48552,-0.1826 0.18366,-0.0517 0.31934,-0.0892 0.40708,-0.11229 l 3.7e-4,-0.0859 c 0,-0.1134 -0.0134,-0.20225 -0.039,-0.26771 -0.0264,-0.0643 -0.0684,-0.11191 -0.12564,-0.14053 -0.0584,-0.0294 -0.13684,-0.0439 -0.23534,-0.0439 -0.12644,0 -0.24353,0.0231 -0.35096,0.0699 -0.10749,0.0465 -0.20299,0.11566 -0.28777,0.20784 -0.0844,0.0926 -0.15241,0.20377 -0.20372,0.33538 l 0.0628,-0.73955 c 0.0476,0.0391 0.087,0.0591 0.11894,0.0591 0.0242,0 0.0692,-0.0119 0.13425,-0.0368 0.13678,-0.0539 0.25282,-0.0922 0.34869,-0.11377 0.0963,-0.0227 0.20821,-0.0338 0.33649,-0.0338 0.16988,3.7e-4 0.30297,0.0242 0.39926,0.0725 0.0956,0.048 0.16471,0.12717 0.20636,0.23613 0.042,0.10965 0.0625,0.25952 0.0625,0.44952 l -7.4e-4,0.8481 c 0,0.18144 0.016,0.3235 0.0483,0.42576 0.0316,0.10294 0.10933,0.1684 0.23276,0.19702 v 0.0405 z m -0.16545,-1.2954 c -0.23234,0.0572 -0.44535,0.14613 -0.63947,0.26734 -0.19406,0.12084 -0.29109,0.28333 -0.29146,0.48521 0,0.10262 0.0309,0.18366 0.0937,0.24463 0.0624,0.061 0.13757,0.0911 0.22679,0.0911 0.2212,0 0.37809,-0.0907 0.47063,-0.27182 0.0933,-0.18145 0.13943,-0.41568 0.1398,-0.70308 z m 1.48412,0.0461 0.52348,-0.57258 c 0.0974,-0.10373 0.14613,-0.18999 0.1465,-0.26068 0,-0.0535 -0.0372,-0.0866 -0.11044,-0.0993 v -0.0409 l 0.80676,7.4e-4 v 0.0405 c -0.065,0.0104 -0.12712,0.0309 -0.18662,0.061 -0.0599,0.0309 -0.11751,0.068 -0.17363,0.11376 -0.0554,0.0461 -0.11081,0.0956 -0.16508,0.14988 -0.0546,0.0532 -0.10743,0.10595 -0.15874,0.15763 l -0.1,0.0993 c 0.15426,0.1655 0.29072,0.35175 0.40855,0.55885 0.11752,0.20673 0.24131,0.45216 0.3707,0.73549 0.0197,0.0435 0.0368,0.0788 0.0498,0.10743 0.0134,0.0279 0.0271,0.052 0.0417,0.074 0.0153,0.0208 0.0342,0.039 0.058,0.0546 0.0237,0.0153 0.0532,0.0257 0.0881,0.0309 v 0.0405 l -0.84356,-3.7e-4 v -0.0409 c 0.0349,0 0.0665,-0.0134 0.0936,-0.0398 0.0279,-0.0268 0.0417,-0.0613 0.0417,-0.1041 0,-0.0851 -0.0349,-0.20599 -0.10485,-0.36252 -0.0695,-0.15653 -0.15315,-0.3101 -0.25023,-0.4596 -0.0974,-0.14946 -0.18065,-0.25652 -0.25018,-0.31939 l -0.28555,0.28856 -3.7e-4,0.47776 c 0,0.12084 0.004,0.21565 0.0127,0.2837 0.008,0.068 0.0297,0.12385 0.0643,0.16809 0.035,0.0446 0.0885,0.0669 0.16023,0.0669 l -3.7e-4,0.0409 -0.87851,-7.4e-4 v -0.0405 c 0.10374,-0.0119 0.1692,-0.061 0.19633,-0.14798 0.0268,-0.087 0.0409,-0.20895 0.0409,-0.36584 l 7.3e-4,-1.11512 c 0,-0.15652 -0.0137,-0.27884 -0.0405,-0.36695 -0.0268,-0.0881 -0.0926,-0.13684 -0.19596,-0.1465 v -0.0409 l 0.87856,7.4e-4 v 0.0405 c -0.10263,0 -0.16809,0.0442 -0.1956,0.13309 -0.0279,0.0893 -0.042,0.21565 -0.042,0.38036 z"
       style="fill:#e30079;fill-rule:evenodd;stroke-width:0.527915"
       id="path5-5" /></g></svg>
